<?xml version="1.0" encoding="UTF-8"?>
<svg id="Capa_2" data-name="Capa 2" xmlns="http://www.w3.org/2000/svg" viewBox="0 0 322.56 89.88">
  <defs>
    <style>
      .cls-1 {
        fill: #fff;
      }
    </style>
  </defs>
  <g id="Capa_1-2" data-name="Capa 1">
    <g>
      <path class="cls-1" d="M0,46.26C0,22.38,20.2,2.75,45.11,2.75s45.34,19.63,45.34,43.51-20.32,43.62-45.34,43.62S0,70.37,0,46.26ZM18.02,46.26c0,14.46,12.17,27.21,27.09,27.21s27.09-12.74,27.09-27.21-12.05-26.98-27.09-26.98-27.09,12.63-27.09,26.98Z"/>
      <path class="cls-1" d="M204.9,50.97v37.31h-17.33v-37.31c0-9.76-5.62-12.74-12.28-12.74-4.71,0-11.94,2.87-12.05,14.92v35.13h-17.33v-37.31c0-9.76-5.74-12.74-12.17-12.74-5.28,0-12.17,2.87-12.17,16.64l-.11,33.4h-17.1V25.14h17.1v5.74c4.36-3.9,11.48-6.89,16.64-6.89,9.64,0,15.96,3.21,20.32,8.61,4.71-5.28,11.82-8.61,20.32-8.61,18.14,0,26.17,10.56,26.17,26.98Z"/>
      <path class="cls-1" d="M232.1,18.48c-5.28,0-9.64-4.13-9.64-9.3s4.36-9.18,9.64-9.18,9.41,4.13,9.41,9.18-4.25,9.3-9.41,9.3ZM223.5,25.25h17.22v63.02h-17.22V25.25Z"/>
      <path class="cls-1" d="M305.57,81.96c-2.64,3.56-10.22,7.69-19.17,7.69-19.97,0-31.68-14.81-31.68-32.94s11.71-32.95,31.68-32.95c9.18,0,15.96,3.67,19.17,7.92v-6.54h16.99v63.13h-16.99v-6.31ZM288.92,38.8c-10.9,0-17.33,7.58-17.33,17.91s6.77,17.79,17.33,17.79,17.33-6.77,17.33-17.79c0-10.45-6.66-17.91-17.33-17.91Z"/>
    </g>
  </g>
</svg>