<?xml version="1.0" encoding="UTF-8"?>
<svg id="Capa_2" data-name="Capa 2" xmlns="http://www.w3.org/2000/svg" viewBox="0 0 1470.42 409.71">
  <g id="Calm-and-confident">
    <g>
      <path d="M0,210.87C0,102.03,92.1,12.55,205.65,12.55s206.69,89.48,206.69,198.32-92.62,198.84-206.69,198.84S0,320.75,0,210.87ZM82.16,210.87c0,65.93,55.47,124.01,123.49,124.01s123.49-58.09,123.49-124.01-54.95-122.97-123.49-122.97-123.49,57.56-123.49,122.97Z"/>
      <path d="M934.04,232.33v170.06h-79.02v-170.06c0-44.48-25.64-58.08-55.98-58.08-21.46,0-54.42,13.08-54.95,68.02v160.12h-79.01v-170.06c0-44.48-26.16-58.08-55.47-58.08-24.07,0-55.47,13.08-55.47,75.87l-.52,152.27h-77.96V114.59h77.96v26.16c19.88-17.8,52.33-31.4,75.88-31.4,43.95,0,72.74,14.66,92.62,39.25,21.45-24.07,53.9-39.25,92.61-39.25,82.68,0,119.31,48.14,119.31,122.97Z"/>
      <path d="M1058.08,84.24c-24.08,0-43.96-18.84-43.96-42.39S1034.01,0,1058.08,0s42.9,18.83,42.9,41.86-19.36,42.39-42.9,42.39ZM1018.84,115.11h78.49v287.27h-78.49V115.11Z"/>
      <path d="M1392.98,373.6c-12.04,16.22-46.57,35.06-87.38,35.06-91.05,0-144.42-67.51-144.42-150.18s53.37-150.18,144.42-150.18c41.86,0,72.74,16.74,87.38,36.11v-29.83h77.44v287.79h-77.44v-28.78ZM1317.1,176.86c-49.71,0-79.01,34.54-79.01,81.63s30.87,81.1,79.01,81.1,79.02-30.87,79.02-81.1c0-47.62-30.35-81.63-79.02-81.63Z"/>
    </g>
  </g>
</svg>