<?xml version="1.0" encoding="UTF-8"?>
<svg id="Capa_2" data-name="Capa 2" xmlns="http://www.w3.org/2000/svg" viewBox="0 0 298.81 65.43">
  <defs>
    <style>
      .cls-1 {
        fill: #4284f3;
      }

      .cls-2 {
        fill: #fff;
      }

      .cls-3 {
        fill: #1a67d3;
      }

      .cls-4 {
        fill: #188039;
      }

      .cls-5 {
        fill: #4385f3;
      }

      .cls-6 {
        fill: #33a752;
      }

      .cls-7 {
        fill: #e94436;
      }

      .cls-8 {
        fill: #fbbc05;
      }

      .cls-9 {
        fill: #fdfdfd;
      }
    </style>
  </defs>
  <g id="Calm-and-confident">
    <g>
      <path class="cls-1" d="M60.43.3l-.93.46c-3.14,0-6.29.04-9.43.11l-.57-.34c.28,4.26.26,8.57.21,12.85,0,.48-.09.97-.18,1.45s-.22.97-.36,1.45c.35.44.2.59-.26.26l-.19.52-31.6-.26c-.21,10.57-.27,21.2-.17,31.89l-.52.32-.24.52H.49l-.31-.52c-.08-14.71.06-29.43,0-44.14C.45,2.72,1.86,1.18,3.84.42,22.19.61,40.65-.16,58.99.03c.44,0,1.17-.17,1.44.27Z"/>
      <path class="cls-8" d="M65.15,16.28c.07,10.91-.05,21.83,0,32.74l-1.05.52c-4.96,0-9.92,0-14.88,0l-.31-.52c-.75-9.08-.82-18.37-.57-27.49.05-1.68.28-3.34.57-4.99,0-.02.26-.08.26-.26l.24-.52h15.42l.31.52Z"/>
      <path class="cls-6" d="M48.9,49.02c.21.02.52.1.52.24.16,4.18.14,8.93,0,13.12.14,1.06-.03,2.02-.52,2.88-10.65-.04-21.31.05-31.96,0l-.52-.24v-14.65c-.36-.6-.37-1.05,0-1.35,10.82-.52,21.66-.52,32.48,0Z"/>
      <path class="cls-4" d="M16.42,49.02l.54,1.16v15.08c-3.76-.02-8.61.39-12.19,0-2.17-.23-4.26-2.17-4.56-4.35-.45-3.29,0-8.38-.02-11.9h16.24Z"/>
      <path class="cls-3" d="M60.43.3c2.28.2,4.13,1.91,4.6,4.18.6,2.87.09,8.59.12,11.8h-15.98c.07-5.32-.05-10.66,0-15.98,3.64.24,7.67-.32,11.27,0Z"/>
      <path class="cls-2" d="M100.51,33.83h-7.86v-3.14h11.26v4.32c0,1.81-2.49,5.41-3.95,6.53-6.14,4.7-15.77,1.99-18.7-5.09-5.03-12.13,10-22.47,19.49-13.71l-2.21,2.44c-7.52-6.76-18.27,2.12-13.54,10.93,3.5,6.5,14.94,5.72,15.5-2.27Z"/>
      <polygon class="cls-7" points="65.15 49.02 48.9 65.26 48.9 49.02 65.15 49.02"/>
      <path class="cls-2" d="M193.98,21.84c2.99-.08,6.2,1.19,8.16,3.47l-1.96,1.96c-4.41-5.24-13.02-2.65-13.95,4.13-1.21,8.83,8.6,13.42,14.47,6.88l1.96,1.96c-5.69,6.39-16.84,4.22-18.95-4.36-1.72-7,2.89-13.84,10.27-14.04Z"/>
      <path class="cls-2" d="M254.28,43.52h-2.62v-9.3c0-.4-.8-2.18-1.17-2.5-1.14-.99-3.09-.91-4.32-.11-.45.29-1.85,1.93-1.85,2.35v9.56h-2.88v-14.41c.44.07,2.52-.1,2.62,0,.14.14-.21,1.54.13,1.83,2.05-2.84,6.64-3.34,8.91-.53.38.48,1.17,1.98,1.17,2.49v10.61Z"/>
      <rect class="cls-2" x="156.57" y="20.21" width="3.41" height="23.05"/>
      <rect class="cls-2" x="219.96" y="22.3" width="2.62" height="21.22"/>
      <path class="cls-2" d="M290.17,29.11c.42.07,2.26-.1,2.36,0,.15.15-.22,1.75.13,2.1,1.36-2,3.71-3.27,6.13-2.33.13.19-.43,2.48-.53,2.57-.39.34-2.85-.7-4.54,1.36-.21.26-.94,1.47-.94,1.68v9.04h-2.62v-14.41Z"/>
      <path class="cls-9" d="M48.9,16.54c-.14,10.82,0,21.66,0,32.48H16.42V16.28s32.48.26,32.48.26Z"/>
      <path class="cls-2" d="M151.07,28.59c-.08.08.06,1.02,0,1.31-4.88-4.29-11.88.06-11.8,6.16.06,4.89,5.07,9.34,9.89,7.25.76-.33,1.16-.94,1.92-1.09.42,3.55-1.71,6.38-5.51,5.38-1.35-.36-2.5-2.4-2.77-2.46-.55-.13-2.03.97-2.71,1.03,1.55,5.2,9.42,6.42,12.67,2.06.51-.68,1.35-2.46,1.46-3.25v-16.37c-.5.08-3.03-.11-3.14,0ZM146.02,40.58c-4.4-.82-4.45-8.58.53-9.31,6.05-.88,6.68,10.66-.53,9.31Z"/>
      <path class="cls-2" d="M268.42,22.3v8.64c-.47-.25-.52-.75-1.06-1.16-4.35-3.32-10.14.28-10.7,5.25-.79,7.11,6.29,11.97,11.76,6.65-.34,2.31.85,1.84,2.62,1.83v-21.22h-2.62ZM264.36,41.43c-6.3.53-6.81-9.94-.71-10.43,5.96-.48,6.64,9.93.71,10.43Z"/>
      <path class="cls-2" d="M112.76,28.14c-9.84.21-10.24,14.74-.86,15.64,11.45,1.1,11.68-15.87.86-15.64ZM111.92,40.62c-4.5-.71-4.64-8.84.58-9.36,6.39-.63,6.64,10.5-.58,9.36Z"/>
      <path class="cls-2" d="M130.05,28.14c-10.13.15-10.29,14.66-1.12,15.65,11.47,1.24,11.8-15.81,1.12-15.65ZM133.63,38.79c-.5.75-1.5,1.62-2.4,1.79-6.91,1.27-7.33-8.7-1.7-9.31,4.07-.44,6.29,4.26,4.1,7.52Z"/>
      <path class="cls-2" d="M171.89,39.85c-2.13,1.58-5.35.97-6.42-1.57l10.48-4.2c-3.17-10.71-17.43-5.4-13.9,4.86,2.01,5.85,11,6.71,13.63,1.17-.74.15-2.13-1.53-2.49-1.53-.19,0-.99,1.03-1.31,1.26ZM171.42,32.07c.16.19.45.82.34.97-.21.3-5.96,2.16-6.81,2.62-.64-3.21,4.32-6.05,6.47-3.59Z"/>
      <path class="cls-2" d="M215.51,30.55c-2.4-2.87-9.26-2.77-10.89.92.5.28,1.82,1.36,2.33,1.26.34-.07.83-.86,1.23-1.12,2.59-1.71,6.24.06,6.01,3.26-3.57-1.68-10.24-.87-10.24,4.06,0,5.26,7.62,6.8,10.11,2.49.33.02,0,1.97.13,2.1.1.1,2.18-.08,2.62,0v-10.09c0-.43-.96-2.48-1.31-2.89ZM211.64,41.09c-5.16,2.06-6.85-4.29-1.43-4.85.92-.09,3.86.26,4,1.38.14,1.21-1.47,3.03-2.57,3.47Z"/>
      <path class="cls-2" d="M273.39,36.85c.43,7.78,10.64,9.78,13.89,3.01-.57.08-1.97-1.04-2.23-1.02-.1,0-.85,1.13-1.17,1.41-3.1,2.76-7.68.43-7.6-3.54h11.26c.85-10.99-14.76-10.79-14.16.14ZM276.54,34.61c.3-4.75,7.89-4.84,8.12,0h-8.12Z"/>
      <path class="cls-2" d="M235.25,40.34c-2.28,1.78-5.68,1.36-7.02-1.28-.21-.41-.95-2.34-.28-2.34h11.13c.48-11.1-15.01-10.83-14.15.4.42,5.58,6.06,8.44,10.93,5.93,1.16-.6,2.63-1.83,2.69-3.18-2.63-1.28-1.76-.74-3.3.47ZM229.12,32.11c1.7-1.55,4.53-1.51,6.04.27.3.35,1.53,2.23.65,2.23-1.72,0-6.29.33-7.6,0-.88-.22.55-2.18.91-2.5Z"/>
      <path class="cls-5" d="M29.78,32.51c.08.1,1.44.57,2.09,1.45,5.35,7.14-8.23,13.57-11.76,5.47-.84-1.93.56-1.44,2.07-2.2.62,3.8,6.39,4.69,7.78,1.1s-2.72-5.28-5.68-4.77c-.71-4.29,2.13-1.62,4.18-3.29,4.4-3.58-4.28-8.56-5.76-2.74l-2.61-1.18c2.54-6.51,13.38-4.78,11.98,2.82-.1.57-.43,1.13-.77,1.59s-1.78,1.4-1.53,1.74Z"/>
      <path class="cls-5" d="M43.14,22.56v20.43h-2.88v-17.03l-4.03,1.59c-.16-.03-1.07-2.07-.84-2.39,2.59-.89,4.93-3.13,7.75-2.61Z"/>
    </g>
  </g>
</svg>