<?xml version="1.0" encoding="UTF-8"?>
<svg id="Capa_2" data-name="Capa 2" xmlns="http://www.w3.org/2000/svg" viewBox="0 0 487.44 104.05">
  <defs>
    <style>
      .cls-1 {
        fill: #fff;
      }
    </style>
  </defs>
  <g id="Calm-and-confident">
    <g>
      <path class="cls-1" d="M400.71,101.68h-24.08v-45.19c0-3.44-4.57-6.93-7.89-6.87-3.62.06-7.65,3.68-7.65,7.39v44.67h-24.08v-41.82c0-3.94-5.95-8.42-9.71-8.42h-5.57v50.24h-24.08V28.39h33.03c6.98.62,13.62,3.34,18.38,8.54,5.04-5.22,11.99-9.76,19.43-10.35,16.13-1.28,32.01,10.85,32.25,27.56v47.53Z"/>
      <path class="cls-1" d="M283.14,101.68h-24.08v-45.45c0-.38-.74-1.93-.99-2.37-2.85-5.14-10.49-5.18-13.3,0-.17.31-.99,2.23-.99,2.38v45.45h-24.08v-41.04c0-1.56-1.85-4.95-2.97-6.1-.84-.85-4.11-2.84-5.19-2.84h-7.38v49.98h-23.82V28.39h32.77c7.08.55,13.72,3.4,18.63,8.54,10.01-11.16,24.72-13.64,37.76-5.9,6.25,3.71,13.65,12.68,13.65,20.28v50.37Z"/>
      <path class="cls-1" d="M72.3.24c7.12-.69,15.01.37,22.21-.09,1.71.34,2.06,2.01.96,3.31l-29.02,41.93c-2.11,4.22-1.98,8.71.26,12.85l29.96,43.55c-.12,1.11-.75,1.91-1.91,1.96-13.32-.73-26.91,3.33-36.64-8.17-8.2-9.68-14.75-22.65-22.69-32.73-1.8-2.73-5.8-1.97-6.56,1.16v33.92c-.21,3.23-2.35,5.49-5.59,5.81-4.12.41-13.24.41-17.34,0-3.53-.36-5.28-2.7-5.57-6.09-.58-6.78-.38-17.44-.01-24.35.64-12.03,8.76-21.57,21.11-22.4,1.54-.1,5.88.4,6.86-.39,9.27-12.81,17.67-26.28,26.99-39.04C59.73,5.42,64.35,1.01,72.3.24Z"/>
      <path class="cls-1" d="M129.79,26.65c29.46-1.54,49.15,32.69,33.93,58.01s-47.6,25.52-63.86,1.81.5-58.29,29.94-59.82ZM131.05,49.46c-17.52.14-19.77,27.59-2.77,31.12,21.11,4.38,23.68-31.28,2.77-31.12Z"/>
      <path class="cls-1" d="M447.79,26.65c25.66-1.55,45.04,23.78,38.31,48.4-8.92,32.6-50.63,39.16-68.66,10.02-15.08-24.36,1.98-56.71,30.35-58.43ZM448.82,49.45c-20.4,1.37-16.46,35.27,3.69,31.14,17.67-3.62,14.43-32.35-3.69-31.14Z"/>
    </g>
  </g>
</svg>