<?xml version="1.0" encoding="UTF-8"?>
<svg id="Capa_2" data-name="Capa 2" xmlns="http://www.w3.org/2000/svg" viewBox="0 0 597.48 136.59">
  <defs>
    <style>
      .cls-1 {
        fill: #fff;
      }

      .cls-2 {
        fill: #4086f4;
      }

      .cls-3 {
        fill: #ea4132;
      }

      .cls-4 {
        fill: #32a951;
      }

      .cls-5 {
        fill: #c41c19;
      }

      .cls-6 {
        fill: #f9bc01;
      }
    </style>
  </defs>
  <g id="Calm-and-confident">
    <g>
      <path class="cls-3" d="M141.98,13.59l2.02.88c.32,16.16.62,32.33.92,48.5l-1.94,2.62c2.44,1.39,1.65,2.55-1,2l-48.65,35.89-50.35-35.89c-2.58,1.11-3.04-.18-1-2l-1.94-3.04c.61-31.87.92-47.81.92-47.81l2.02-1.15c16.53,11.92,33.25,23.66,49.5,36.04,16.48-12.06,32.93-24.12,49.5-36.04Z"/>
      <path class="cls-2" d="M41.98,65.59l1,2v69H9.48c-5.01,0-8.16-10.52-8.52-14.56-2.35-25.85.29-59.24,1.02-85.44.85-.08,1.7-.12,2.54-.03,4.74.56,29.51,20.16,35.14,24.93l2.33,4.1Z"/>
      <path class="cls-4" d="M183.98,36.59c.46,29.47-.34,59.01,0,88.5,1.02,3.33-6.2,11.5-8.5,11.5h-33.5v-69l1-2c.53-.97,1.09-1.92,1.76-2.79s1.31-1.64,2.11-2.26c11.53-8.92,23.8-18.18,35.6-25.98l1.53,2.02Z"/>
      <path class="cls-1" d="M350.98,78.59h-32.5c-2.2,0-2.2-11,0-11h44.5v17.5c0,12.3-16.41,27.6-27.33,31.67-41.86,15.63-80.28-24.67-63.86-65.86,11.09-27.82,50.38-39.22,74.09-20.73,5.3,4.13,6.26,6.21.14,10.97-4.04,3.14-6.71-1.86-11.04-4.07-34.15-17.41-67.41,17.94-51.2,51.2,14.99,30.76,65.45,26.44,67.18-9.68Z"/>
      <path class="cls-1" d="M473.98,117.59h-11v-42.5c0-1.19-2.89-8.87-4.05-9.95-6.75-6.31-18.84-3.19-23.96,3.95-1.4,1.95-4,9-4,11v37.5h-11v-39.5c0-1.5-2.49-11.23-3.53-12.47-3.69-4.42-13.94-4.62-18.84-1.9-4.09,2.27-9.63,10.84-9.63,15.37v38.5h-11V53.59c1.69.28,9.62-.39,10,0,.67.67-1.53,8.29,1.98,9,8.26-14.86,31.01-14.98,39.55,0,1.55.39,5.8-5.22,7.53-6.44,10.1-7.13,25.58-6.8,33.46,3.42,1.46,1.89,4.48,7.48,4.48,9.52v48.5Z"/>
      <path class="cls-6" d="M183.98,36.59c-2.33-.43-3.04.83-4.53,1.97-11.99,9.21-23.86,18.67-36.47,27.03l-1-52c10.25-7.38,19.18-19.55,33.69-10.19,11.03,7.12,8.13,21.89,8.31,33.19Z"/>
      <path class="cls-5" d="M42.98,13.59l-1,52c-13.5-9.33-25.91-20.66-40-29C2.31,24.48-2.2,8.09,12.09,2.21,19.5-.84,25.3-.05,31.91,4.15c3.64,2.31,7.72,7.03,11.07,9.43Z"/>
      <path class="cls-1" d="M584.98,25.09c.65-2.09,9.36-2.04,11.06-1.03.43.26.92,8.52,1,9.98,1.33,27.18-.74,55.45-.49,82.61-1.23,1.77-11.56,1.37-11.56-.56V25.09Z"/>
      <path class="cls-1" d="M568.98,117.59h-12V53.59c2.13.2,12-.88,12,1.5v62.5Z"/>
      <path class="cls-1" d="M569.68,36.3c-3.07,3.8-13.08,3.53-14.48-2.42-3.24-13.75,14.2-14,15.76-5.76.42,2.24.17,6.38-1.28,8.18Z"/>
      <path class="cls-1" d="M538.79,64.27c-7.61-15.3-34.7-16.73-46.82-6.19-1.47,1.28-5.1,4.31-3.87,6.39.27.45,8.65,5.07,9.23,4.96,1.19-.24,5.46-4.7,7.31-5.68,12.49-6.62,26.34,1.93,26.33,15.83-10.53-2.93-18.68-5.33-29.54-2.04-30.33,9.16-16.02,49.93,15.99,40.99,6.36-1.78,7.85-5.83,13.05-8.95,1.27-.03.01,7.52.5,8.02.4.4,9.21-.3,11.01,0v-42.5c0-1.99-2.12-8.68-3.18-10.82ZM513.38,109.51c-19.09,2.29-22.88-20.63-3.66-23.68,4.42-.7,19.99-.1,21.02,5.38,1.4,7.4-10.39,17.46-17.36,18.3Z"/>
    </g>
  </g>
</svg>