<?xml version="1.0" encoding="UTF-8"?>
<svg id="Capa_2" data-name="Capa 2" xmlns="http://www.w3.org/2000/svg" viewBox="0 0 512 126">
  <defs>
    <style>
      .cls-1 {
        fill: #002f6d;
      }

      .cls-2 {
        fill: #01286b;
      }

      .cls-3 {
        fill: #fdfdfe;
      }

      .cls-4 {
        fill: #fee800;
      }

      .cls-5 {
        fill: #fefefe;
      }
    </style>
  </defs>
  <g id="Calm-and-confident">
    <path class="cls-1" d="M103,126h-27C43.75,125.57,3.28,108.54,0,72v-18C14.67,5.24,80.73-5.08,123.76,6.74c76.54,21.02,71.04,97.56-1.76,115.77l-19,3.5Z"/>
    <path class="cls-5" d="M264,55c-2.89-.3-8.93,1.24-10.5-2-2.94-6.05,3.74-28.25-5.01-29.98-2.88-.57-9.48-.32-9.48,3.47v28.5h-11v-29.5c0-2.63-8.81-5.41-12.05-1.05-.41.55-1.95,4.65-1.95,5.05v25.5h-10v-30.5c0-4.71,7.52-10.15,11.94-11.06,9.41-1.93,12.79,2.5,17.56,2.49,1.66,0,5.55-2.26,8.26-2.66,7.56-1.12,16,.43,19.81,7.67.49.94,2.44,6.02,2.44,6.56v27.5Z"/>
    <path class="cls-5" d="M380,28c-3.01-.48-7.67.69-10.34.05-1.07-.26-1.61-6.79-8.27-7-12.68-.4-13.15,26.58.08,26.03,7.34-.31,7.18-7.87,8.13-8.13,2.43-.67,7.51.59,10.39.07-2.65,24.8-40.07,20.37-40.07-4.5s35.87-30.8,40.07-6.5Z"/>
    <path class="cls-5" d="M283,61v55h-11v-48.5c0-2.88,7.62-8.09,11-6.5Z"/>
    <path class="cls-5" d="M314,28.5c1.79-11.44,13.28-16.97,24-15.5-.29,1.79.39,10.62,0,11.01-.41.41-6.93-1.13-10.53,1.97-.57.49-2.48,3.14-2.48,3.52v25.5h-11c.9-8.13-1.22-18.71,0-26.5Z"/>
    <path class="cls-5" d="M358,93.5c1.54-14.52,9.33-20.95,24.01-19.51-.3,1.79.4,10.61,0,11.01-.36.36-6.59-.56-8.99.51-1.31.59-4.02,4.86-4.02,5.98v24.5h-11c.55-7.22-.75-15.41,0-22.5Z"/>
    <path class="cls-5" d="M304,75v41h-11v-39.5c0-2.29,9-1.36,11-1.5Z"/>
    <rect class="cls-5" x="292.99" y="60.99" width="11.01" height="10.01"/>
    <path class="cls-4" d="M4,57c.29-.91.8-1.36,1.63-1.17,12.3,2.94,24.21,5.79,35.43,12.02l.99,2.48c-.73,6.2,2.56,9.67,9.89,10.41,1.6,4.53,5.26,7.23,10.98,8.1,2.89,3.35,6.79,4.88,11.7,4.59,4.71,7.37,8.39,6.48,15.48,2.81,5.5,3.34,11.03,3.79,16.01-.88,6.22.72,8.57-.43,10.56-6.12,6.96.53,10.45-2.13,11.57-8.66,8.65-.31,12.47-3.25,9.09-12.03.71-1.94,35.45-13.06,36.89-11.74.34.31.58.74.79,1.2,2.15,8.7-4.47,21.93-9.98,28.52-20.82,24.95-61.55,32.26-92.4,28.35C43.55,111.18-.13,92.59,4,57Z"/>
    <path class="cls-5" d="M24,27l2.02-.76c13.87,5.94,27.61,7.54,41.2,4.81l.9,2.73c-22.1,19.8,6.44,17.34,15.98,5.13,8.91-6.86,16.87-1.69,24.27,4.95l28.01,23.98c4.97,8.78,1.25,13.48-8.48,11.45-.22-.05-.42.1-.41.3.12,8.07-4.38,11.21-12.08,8.86,1.64,6.31-4.71,8.16-10,6.66-2.73,5.45-13.78,4.61-15.31-.29,1.99-8.58-1.65-11.04-9.27-12.63-1.35-8.08-3.48-10.94-12.25-9.5-3.87-5.58-6.94-5.39-13.16-3.06-3.65-2.99-8.37-3.39-14.18-1.19-10.83-6.17-22.64-10.41-35.42-12.73l-1.82-1.69c1.82-8.91,9.76-22.23,17.5-27.09,1.65-1.04,1.49-.13,2.5.09Z"/>
    <path class="cls-5" d="M156,28c10,5.3,17,15.08,18,27l-.87,1.4c-12.16,3.19-24.05,6.91-35.71,11.54-10.96-8.48-21.73-17.37-32.3-26.68-6.63-6.05-14.12-7.82-21.4-2.09-3.9,4.76-22.06,14.85-24.32,5.8-.72-2.88,12.36-15.16,15.33-16.96,9.61-5.85,19.73-7.51,30.39-3.5,15.79,7.87,32.2,9.88,49.11,2.83l1.76.66Z"/>
    <path class="cls-4" d="M26,25C45.91-1.92,131.14,1.4,154,26c-.15.79-.36,1.45-.79,1.64-10.06,4.45-23.57,5.34-34.08,2.3-15.02-6.66-30.15-12-44.82-1.67-13.07,4.69-18.61,5.8-32.73,2.51-4.98-1.16-11.96-3.08-15.59-5.78Z"/>
    <path class="cls-2" d="M154,26c.53.57,1.44,1.7,2,2-9.41,4.5-20.12,6.03-30.49,4.99-16.09-1.62-25.21-14.22-44.05-7.03-3.7,1.41-21.05,15.97-20.46,18.51.2.86,2.73,2.11,3.74,2.33,13.11,2.85,19.25-21.68,38.18-9.21,6.12,4.04,31.08,28.08,34.65,28.42,1.35.13,20.62-7.4,24.44-8.51s7.94-2.27,12-2.5c.31,3.72.76,2.03,1,3-4.77.94-34.5,9.09-36,11.04-.31.41,2.97,5.87-.53,9.94-2.31,2.68-8.96,2.74-9.35,3.15s.24,3.09-2.06,5.44c-3.57,3.65-8.38,2.61-9.91,3.59-.53.34-.53,2.52-1.44,3.56-2.61,2.96-6.31,1.63-8.97,2.53-2.33.78-4.18,3.21-7.37,3.43s-8.56-2.67-9.69-2.47c-1.81.32-2.84,2.88-7.18,2.9-7.06.03-6.79-4.81-8.7-5.88-1.24-.69-4.58.05-6.86-.65s-3.3-3.11-5.01-3.99c-4-2.07-6.02-.44-9.97-5.07-.79-.93-.72-2.88-1.18-3.28-.68-.59-4.88-.5-7.31-2.2-4.64-3.24-2.51-6.76-3.64-10.36-1.38-4.4-30.28-11.35-35.84-12.66.11-.96-.18-2.13,0-3,6.93,1.24,13.81,2.81,20.52,4.98,4.82,1.56,14.49,7.01,17.41,7.56,2.1.39,5.86-3.12,11.06-1.01.87.36,1.6,2.14,2.5,2.21.78.06,3.33-2,6.89-1.69,5.95.53,5.25,3.79,6.75,4.87.34.24,4.32-1.59,8.14.31,5.83,2.9,4.19,9.06,4.8,9.7.3.31,5.64.2,7.98,2.8,4.46,4.96,1.6,11.7,1.97,12.23.68.97,10.43,2.11,10.98-.48s-8.32-6.64-6.99-10.48c5.73,2.18,8.57,10.84,15.28,8.8,8.49-2.58-5.75-13.25-7.29-16.79,6.22-.05,10.16,11.5,16.26,10.81,4.56-.52,6.79-4.37,5-8.55-1.09-2.56-13.67-12.66-12.25-14.26,5.17,1.56,18.56,20.68,23.51,11.02,2.21-4.32-2.23-7.38-4.99-10.04-7.4-7.13-19.81-18.07-28.05-23.95-1.9-1.36-5.38-4.03-7.46-4.58-12.35-3.23-22.26,20.21-36.4,10.44-6.44-4.45,5.38-11.27,7.37-15.87-15.7,7.06-28.57-1.82-43-5.01.21-1.07,1.64-1.52,2-2,11.07,2.21,20.73,7.21,32.39,5.89,16.12-1.82,22.67-12.13,40.85-9.64,9.57,1.31,18.12,7.82,28.28,8.73s17.46-1.2,26.48-3.98Z"/>
    <path class="cls-5" d="M464,0h-4c-8.96,4.07-7.05,9.46-7.01,18-19.59-15.28-32.86,6.98-26.46,25.97,5.1,15.14,30.1,15.82,35.97,2.03,4.52-10.63-.28-33.84,1.5-46ZM445.26,46.79c-11.69,1.14-11.79-21.63-3.55-23.57,15.72-3.7,14.68,22.49,3.55,23.57Z"/>
    <path class="cls-5" d="M469.93,33.49c-.41,26.29,34.3,29.84,42.07,6.51v-12c-7.45-22.68-41.68-19.81-42.07,5.49ZM491.48,47.07c-12.97.55-13.7-24.42-1.72-25.89,14.26-1.74,14.83,25.33,1.72,25.89Z"/>
    <path class="cls-5" d="M350.2,81.3c-4.81-9.4-18.05-10.9-25.2-3.3v-17c-3.72-.49-10.22,1.63-10.98,5.52-1,5.15-.68,28.16-.02,33.98,2.3,20.41,32.66,20.72,37.74,2.74,1.64-5.8,1.24-16.5-1.54-21.94ZM334.41,106.99c-13.05,1.3-11.97-21.9-3.7-23.77,14.83-3.36,13.99,22.75,3.7,23.77Z"/>
    <path class="cls-5" d="M424.9,91.62c-2.32-25.67-42.27-24.17-39.93,5.93,1.72,22.18,33.36,24.87,39.01,5.93.7-2.34-8.05-1.79-9.27-1.49-.94.23-1.59,3.6-4.65,4.57-7.26,2.31-13.78-.47-14.05-8.55h27.5c1.88,0,1.52-5.02,1.4-6.38ZM396,90c1.91-10.39,16.37-11.12,17,0h-17Z"/>
    <path class="cls-5" d="M268.45,39.06c2.89,16.64,25.58,22.2,35.55,9.44,1.22-1.55,4.71-6.09,1.52-6.5-1.54-.2-6.58-.35-7.81-.01-.94.26-1.17,2.15-2.32,2.86-7.89,4.95-15.44,1.31-16.39-7.85h29c3.13-33.74-45.31-31.09-39.55,2.06ZM279,30c1.88-11.49,16.45-12.06,18,0h-18Z"/>
    <path class="cls-5" d="M418.03,18.47c-5.77-9.25-33.89-8.28-32.03,7.52,2.37-.46,8.14.79,9.8-.21.45-.27.75-2.25,2.22-3.24,3.29-2.22,12.1-1.76,10.86,2.8-1.58,5.85-20.32.83-23.42,12.62-5.79,22.04,27.28,21.71,32.74,7.75,2.26-5.77,3.07-22.02-.19-27.24ZM394.99,41.54c.56-5.12,9.97-5.92,14-6.53,4.5,11.16-15.14,16.8-14,6.53Z"/>
    <path class="cls-3" d="M54.01,73c2.6-1.69,3.97-4.03,7.48-4.05,5.99-.03,5.73,5.94,7,6.03.92.06,3.65-3.81,8.46-.42s-.34,10.14,2.53,10.41c1.81.17,3.56-2.74,7.6.46,6.31,5,1.13,13.94-6.34,12.4-4.92-1.01-4.7-7.83-6.24-7.8-.32,0-1.68,2.64-5.76,1.8-5.16-1.05-4.03-6.07-4.75-6.82-.26-.28-2.54,1.67-3.71,1.85-4.85.74-8.24-5.6-7.29-9.85-8.88,7.04-14.88-8.86-4.46-9.05,3.95-.07,4.85,1.22,5.48,5.05Z"/>
  </g>
</svg>