<?xml version="1.0" encoding="UTF-8"?>
<svg id="Capa_2" data-name="Capa 2" xmlns="http://www.w3.org/2000/svg" viewBox="0 0 317.26 80.18">
  <defs>
    <style>
      .cls-1 {
        fill: #fff;
      }

      .cls-2 {
        fill: #0a0080;
      }

      .cls-3 {
        fill: #fefefe;
      }

      .cls-4 {
        fill: #00bbfe;
      }
    </style>
  </defs>
  <g id="Calm-and-confident">
    <g>
      <path class="cls-2" d="M50.43.28c27.43-1.88,71.45,10.33,64.71,46.04C106.17,93.81-4.35,92.46.13,35.21,1.85,13.3,31.66,1.57,50.43.28Z"/>
      <path class="cls-1" d="M169.53,33.63h-5.99v-15.67c0-.13-.61-1.82-.75-2.07-1.31-2.3-4.94-2.64-6.83-.94-.38.34-1.57,2.66-1.57,3v15.67h-5.99v-16.73c0-.25-1.07-1.81-1.42-2.1-1.6-1.31-4.21-1.13-5.8.15-.51.41-1.58,2.14-1.58,2.65v16.02h-5.99v-16.73c0-3.29,3.62-7.39,6.7-8.44,4.29-1.46,8.16-.38,11.39,2.61,4.47-5.01,13.76-4.11,16.6,2.14.35.78,1.23,3.7,1.23,4.4v16.02Z"/>
      <path class="cls-1" d="M239.61,17.43h-6.87c-.51,0-.64-3.4-3.54-3.85-7.03-1.1-7.97,7.4-5.96,12.3,1.13,2.75,4.38,3.75,6.99,2.42,2.2-1.12,1.76-3.83,1.98-3.83h7.04c-1.61,13.17-22.01,13.37-23.86-.27-1.49-11.03,5.34-18.41,16.53-15.83,4.88,1.13,6.99,4.24,7.68,9.05Z"/>
      <path class="cls-1" d="M214.26,7.93v6.69c-2.13,0-4.93-.35-6.49,1.43-.18.2-1.26,2.13-1.26,2.26v15.32h-6.69v-15.32c0-.18.56-2.1.68-2.49,1.98-5.96,7.82-8.24,13.75-7.9Z"/>
      <path class="cls-4" d="M32.54,51.24c.23.16.68,3.05,3.13,4.45,1.79,1.03,4.13.61,4.57.89.09.06.49,1.32,1.09,1.9,2.38,2.26,5.26,1.04,6.28,1.64.66.39,1.09,2.64,3.75,3.47,4.47,1.39,5.42-1.37,7.06-1.42s3.64,1.93,7.31,1.31c1.83-.31,2.61-1.78,3.33-1.98.58-.15,1.15.24,1.62.17,1.85-.26,3.89-1.07,4.97-2.7.37-.55.51-1.65.58-1.71.16-.14,2.19,0,2.87-.12,2.42-.41,5.15-3.34,4.84-5.9,4.77,1.32,8.91-3.7,6.34-8.1l23.24-7.05c.58,20.82-21.59,32.44-39.37,35.82-15.77,2.99-33.38,1.69-48.09-4.88C13.46,61.41,1.31,50.85,2.26,35.74c.49-.48,10.15,2.2,11.62,2.64,1.88.57,11.86,3.84,12.29,5.34.12.42-.41,1.87-.23,3.03.41,2.67,2.8,4.54,5.38,4.78.37.03,1.06-.4,1.22-.29Z"/>
      <path class="cls-3" d="M43.81,19.2c-1.45,2.21-5.41,4.82-6.43,7.13-1.25,2.84,2.81,4.21,4.88,4.45,9.78,1.1,13.24-12.84,23.15-6.24,5.95,3.97,16.51,13.28,21.72,18.42,3.9,3.85.67,7.27-3.78,5.89-2.91-2.03-5.68-5.77-8.57-7.63-1.46-.94-2.46-.8-1.23.88,1.62,2.22,7.85,6.73,8.23,9.06.45,2.72-3.14,4.57-5.6,3.8-1.25-.39-7.42-7.94-8.43-6.88-.15,3.09,9.76,8.35,4.78,10.93-3.98,2.06-6.01-2.74-8.99-4.78-.85-.58-2.02-.82-1.49.43.48,1.13,4.98,5.2,4.99,5.57-2.01,2.17-5.04,1.08-7.38.15,1.58-4.78-1.06-9.76-6.35-9.48.5-3.71-2.11-6.87-5.86-7.03-.84-.04-1.77.47-2.35.36-.15-.03-1.15-1.69-2.1-2.21-.8-.44-2.4-.93-3.28-.95-1.3-.02-3.01,1.05-3.85,1-1.06-.05-1.96-2.13-5.27-1.75-1.3.15-2.58,1.38-3.1,1.35-.39-.02-5.83-2.97-7.1-3.47-5.55-2.18-11.63-3.55-17.41-4.95.79-7.02,5.99-13.4,11.5-17.52,6.79,1.81,14.92,5.86,22.06,5.17,2.48-.24,4.8-1.43,7.26-1.71Z"/>
      <path class="cls-3" d="M113.19,33.63c-8.25,1.91-16.32,4.46-24.13,7.73l-1.41-.68c-6.66-5.47-13.12-12.23-20.09-17.24-1.61-1.15-3.44-2.64-5.43-3.02-8.69-1.67-13.06,10.49-21.03,8-.64-.2-1.54-.43-1.54-1.29,0-.73,7.69-8.27,8.84-9.13,6.24-4.61,13.41-4.76,20.59-2.33,9.61,3.25,13.12,6.03,24.11,3.72,1.68-.35,8.45-2.96,8.92-2.92.77.07,3.61,3.03,4.29,3.8,3.38,3.84,5.75,8.37,6.86,13.38Z"/>
      <path class="cls-4" d="M100.16,14.97c-4.55,1.51-9.1,3.02-13.97,3.04-13.97.07-21.59-11.4-36.85-3.32-.89.47-1.94,1.65-2.69,1.89-1.79.58-10.43,2.32-12.17,2.29-5.5-.08-12.47-3.32-17.78-4.78C33.18,2.41,56.44-.11,75.93,4.16c8.49,1.86,17.47,5.3,24.23,10.8Z"/>
      <path class="cls-3" d="M35.01,45.96c2.75-3.5,8.48-4.03,8.8,1.41,1.11-.15,1.84-1.29,3.03-1.4,4.31-.42,5.03,4.16,4.02,7.39,2.36-.64,5.53-.63,6.76,1.86,2.63,5.31-4.88,9.27-7.82,4.66-.66-1.04-.44-2.13-1.24-3-2.93,2.47-7.03.72-6.86-3.17-4.43,2.01-7.72-.47-7.04-5.28-.39-.41-3.81,2.72-5.99-.53-3.44-5.12,6.06-8.39,6.34-1.94Z"/>
      <path class="cls-1" d="M207.58,53.16c-1.04-11.29-18.24-13.13-22.26-3.57-4.09,9.72,1.07,23.76,13.28,19.27l2.63-2.47c.26,3.17-.9,7.33-4.48,8.03-3.1.6-4.9-2.39-5.2-2.39h-6.87c2.81,10.58,19.21,11.05,22.35.34.99-3.38.91-15.32.56-19.19ZM197.16,64.25c-2.52.41-5.08-.12-6.07-2.69-1.39-3.61-1.06-11.59,3.71-12.35,8.23-1.3,8.13,14.11,2.36,15.04Z"/>
      <path class="cls-1" d="M143.3,43.85c-4.49.45-9.69,4.49-9.69,9.33v24.83c1.69.54,6.69-.48,6.69-2.64v-8.63c6.8,6.76,15.41,2.55,17.16-6.26,2.08-10.43-3.2-17.72-14.16-16.63ZM146.47,64.27c-5.99.59-6.77-5.31-6.13-10,.34-2.49,2.21-4.86,4.82-5.06,7.73-.6,8.03,14.4,1.31,15.07Z"/>
      <path class="cls-1" d="M283.28,3.17v8.28c-7.16-7.82-16.71-1.97-17.6,7.58-.98,10.5,4.81,17.01,15.57,14.86,4.36-.87,8.72-4.87,8.72-9.59V.18c-1.73-.77-6.69,1.09-6.69,2.99ZM279.21,28.68c-4.15.66-6.34-1.48-6.81-5.47-.41-3.5.2-8.89,4.45-9.56,8.24-1.31,8.38,14.09,2.36,15.04Z"/>
      <path class="cls-1" d="M196.65,17.61c0-.65-1.27-3.55-1.69-4.29-4.22-7.41-17.35-7.19-21.26.36-2.56,4.96-2.44,13.62,2.01,17.48,6.17,5.36,17.72,4.04,20.59-4.22h-6.87c-.16,0-1.17,1.43-2.55,1.68-4.69.85-8.23-.84-8.19-5.9h17.96v-5.11ZM178.69,18.49c.9-7.08,10.76-7.03,11.27,0h-11.27Z"/>
      <path class="cls-1" d="M235.29,53.62c-1-7.36-7.5-10.79-14.43-10.03-14.48,1.6-13.92,24.74-.76,26.28,11.11,1.3,16.65-5.49,15.19-16.25ZM228.66,58.77c-.62,4.98-5.69,7.99-9.64,4.44-3.24-2.91-2.86-13.07,2.19-14,6.4-1.17,8.11,4.25,7.45,9.56Z"/>
      <path class="cls-1" d="M304,7.66c-15.48.47-15.9,23.07-3.47,26.16,20.62,5.13,22.66-26.75,3.47-26.16ZM305.97,28.68c-9.78,1.55-9.3-14.27-2.71-15.38,9.4-1.6,8.93,14.4,2.71,15.38Z"/>
      <path class="cls-1" d="M263.56,14.44c-1.07-9.53-21.94-8.91-21.13,1.94h6.34c-.38-4.75,10.08-3.97,8.28-.01-1,2.2-7.18,2.09-9.56,2.78-4.99,1.45-7.5,6.17-5.32,11.05,2.31,5.16,11.36,4.63,15.75,2.9,1.62-.64,3.84-2.24,4.65-3.8,1.3-2.48,1.32-11.87.99-14.86ZM256.71,26.25c-1.09,3.16-7.73,4.77-8.57,1.14-1.24-5.35,6.05-4.44,9.08-6.09.25.27-.3,4.34-.51,4.94Z"/>
      <path class="cls-1" d="M181.51,50.01c-.63-5.91-8.82-6.7-13.47-6.07-4.28.58-7.73,3.93-7.66,8.36h6.34c-.23-4.81,10.25-4.05,8.19.27-.84,1.76-6.81,1.82-8.9,2.37-5.06,1.33-7.13,4.59-6.32,9.84.91,5.82,9.02,5.87,13.45,5.04,4.27-.81,7.96-3.12,8.38-7.82.26-2.95.3-9.08-.01-11.99ZM174.42,62.65c-1.65,3.51-9.04,4.1-8.41-.99.46-3.68,6.79-2.85,9.15-4.43.08,1.84.06,3.72-.74,5.42Z"/>
    </g>
  </g>
</svg>