<?xml version="1.0" encoding="UTF-8"?>
<svg id="Capa_2" data-name="Capa 2" xmlns="http://www.w3.org/2000/svg" viewBox="0 0 450.82 129.32">
  <defs>
    <style>
      .cls-1 {
        fill: #5f8d3e;
      }

      .cls-2 {
        fill: #fff;
      }

      .cls-3 {
        fill: #94bf48;
      }

      .cls-4 {
        fill: #fefefe;
      }
    </style>
  </defs>
  <g id="Calm-and-confident">
    <g>
      <path class="cls-1" d="M78.5,15.91c2.75,1.48,5.54,6.18,7.53,7.08,3.52,1.6,9.36-1.58,10.92,2.43l13.33,90.26c-.06.7-.02,1.56-.43,2.13-1.14,1.58-33.44,6.75-38.04,8.29.68-7.61.45-15.32.84-22.95,1.43-28.1,3.04-56.19,4.17-84.36.06-1.61-.86-3.35,1.67-2.88Z"/>
      <path class="cls-2" d="M200.38,26.76l-5.84,30.05c4.1-3.56,7.29-6.78,13.02-7.42,28.54-3.16,8.85,40.56,8.68,55h-15.03c-.38-7.88,8.9-35.73,4.95-41.26-1.46-2.05-4.43-1.58-6.58-.85-10.31,3.52-11.35,32.88-14.23,42.11h-15.03l14.19-77.63h15.86Z"/>
      <path class="cls-2" d="M416.17,50.14c2.15.65,3.39,32.32,5.01,36.74l14.19-36.74h15.44c-6.46,13.26-11.83,27.21-18.48,40.37-7.82,15.48-16.9,33.12-34.55,38.81-.95-.1-5.02-12.44-4.5-13.16,5.4-1.4,16.1-8.97,16.69-14.67-1.8-17.28-6.92-34.11-8.41-51.35,3.8.71,11.39-.97,14.61,0Z"/>
      <path class="cls-2" d="M362.33,104.4l7.52-42.57h-6.68c.77-2.23,1.09-9.52,2.05-10.89,1.27-1.81,5.74-.1,7.02-.91.52-.33,2.41-9.5,3.55-11.89,3.98-8.37,11.94-13.11,21.18-13.12,12.57-.01,5.71,5.1,5.42,13.43-9.36-2.77-13.56,3.19-15.02,11.67h10.85c-1.05,2.37-.92,10.87-3.03,11.59-2,.68-8.7-.73-9.59.59l-8.25,42.09h-15.03Z"/>
      <path class="cls-2" d="M166.98,62.66c-4.77-2.72-21.03-3.29-15.89,5.47,3.12,5.32,14.53,6.34,15.83,16.72,2.28,18.21-20.3,24.16-34.12,19.1-7.78-2.85-1.44-6.84-.85-12.92,5.23,2.9,21.12,6.74,19.04-3.56-.98-4.89-12.34-7.32-14.94-14.33-6.96-18.72,17.44-28.11,31.79-22.61,4.83,1.85-.73,8.32-.85,12.12Z"/>
      <polygon class="cls-2" points="358.99 50.14 348.97 104.4 333.95 104.4 343.96 50.14 358.99 50.14"/>
      <path class="cls-2" d="M354.51,27.03c9.48-.58,10.48,12.95,3.43,15.79-14.04,5.66-15.46-15.06-3.43-15.79Z"/>
      <path class="cls-3" d="M71.82,15.55c-.98-.62-3.05-6.2-4.64-7.94-3.19-3.5-5.38-2.4-8.66-3.86-1.69-.75-3-2.98-5.67-3.52-9.6-1.94-18.82,8.52-22.66,16.19-1.35,2.7-4.39,13.39-5.31,14.31-2.12,2.11-12.63,2.66-14.38,5.23L0,112.27l71.83,13.83,1.25-1.69c2.34-35.79,4.15-71.96,5.43-108.5-3.28-1.77-5.04.68-6.68-.36ZM30.93,29.27c.84-9.03,9.12-23.89,18.99-24.91,1.36-.14,2.32.05,2.7,1.52-2.63.8-5.83,4.13-7.38,6.41-2.25,3.32-4.39,12.4-5.57,13.63-1.57,1.65-6.64,1.87-8.75,3.34ZM57.51,20.8c-.38.6-10.6,3.2-12.4,3.45,1.85-6.12,4.62-11.74,10.44-15,1.4.06,2.77,10.27,1.96,11.55ZM61.81,19.25l-.83-10.85c3.95,1.26,5.3,5.2,6.66,8.74l-5.83,2.11Z"/>
      <path class="cls-4" d="M54.29,59.32c-5.14-3.02-22.17-3-16.73,6.31,3.43,5.87,13.5,7.46,15.54,17.02,3.99,18.7-11.88,29.89-28.85,22.17-9.36-4.26-6.32-7.12-4.17-15.44,1.37-1,9.73,7.71,15.35,4.08,7.95-5.13-6.12-13.48-8.68-17.03-8.1-11.25-.46-27.37,11.86-31.54,3.61-1.22,17.34-2.75,19.51.19,1.46,1.98-4.34,11.04-3.84,14.24Z"/>
      <path class="cls-2" d="M333.1,64.76c-1.88-18.48-21.35-20.15-31.7-7.11l.83-7.51h-14.19l-13.36,75.97h15.86l3.34-21.71c24.83,7.79,41.51-17.1,39.22-39.64ZM304.1,94.22c-1.84.33-7.01-.43-7.39-2.72-.3-1.8,2.6-15.43,3.42-18,1.42-4.44,4.38-10.56,9.4-11.52,14.29-2.75,6.58,30.11-5.43,32.24Z"/>
      <path class="cls-2" d="M252.77,49.52c-28.87,3.95-36.96,56.01-5.18,56.57,34.66.61,44.98-62.02,5.18-56.57ZM253.6,92.91c-17.22,7.04-11.03-29.32-.02-31.76,15.31-3.4,8.65,28.23.02,31.76Z"/>
    </g>
  </g>
</svg>