<?xml version="1.0" encoding="UTF-8"?>
<svg id="Capa_2" data-name="Capa 2" xmlns="http://www.w3.org/2000/svg" viewBox="0 0 684.45 114.73">
  <defs>
    <style>
      .cls-1 {
        fill: #fff;
      }
    </style>
  </defs>
  <g id="Calm-and-confident">
    <path class="cls-1" d="M13.82,24.83c10.31-10.07,26.24-14.29,40.29-11.15,1.86.41,6.64,2.44,8.01,2.05,1.23-.35,6.05-4.81,7.7-5.94,32.14-21.92,77.91-5.29,87.27,32.58,13.02,52.7-43.29,92.27-88.47,61.65-1.88-1.28-5.08-4.64-7.15-4.88-2.23-.26-7.43,1.87-10.07,2.29C8.42,108.31-17.49,55.42,13.82,24.83ZM87.92,57.51c-1.58.44-8.18,0-10.41,0-1.75,0-1.29-4.22-1.5-5.3-7.02-35.82-56.66-34.89-62.95-.72-4.2,22.77,17.47,43.44,39.84,36.43-4.19-8.11-7.94-17.32-8.42-26.59-.07-1.28-.44-3.55,1.02-3.82,1.88-.35,5.48.03,7.62.02,1.04,0,2.74-.73,3.69.08.42.36,1.13,7.72,1.43,9.18,8.32,41.17,65.46,47.94,83.59,10.2S122.42.43,84.53,16.09c-1.76.73-10.46,5.33-10.75,6.86-.15.8,6.42,7.76,7.47,9.22,3.65,5.08,6.26,11.4,7.21,17.6.25,1.6,1.26,7.24-.54,7.74Z"/>
    <path class="cls-1" d="M402.5,19.09c.13.04.71.62.79.81l.17,67.8c-.1.41-.14,1.05-.46,1.33-1.11.96-9.62.56-11.51.1v-6.4c-14.94,15.75-38.86,6.61-41.91-14.32-2.55-17.5,10.63-34.39,29.19-30.79,3,.58,6.5,2.01,8.91,3.89,1.26.98,2.23,2.84,3.81,3.19v-25.01s.56-.6.6-.6c2.22,0,8.83-.44,10.41,0ZM375.4,48.02c-9.39.66-15.57,9.87-13.9,18.86,2.48,13.29,19.42,17.54,27.51,6.37s-.25-26.16-13.62-25.23Z"/>
    <path class="cls-1" d="M586.2,19.09c1.69.54.6,5.01.58,6.19-.11,6.6.11,13.23.02,19.83.66.15.81-.21,1.19-.61,21.45-22.24,52.8,8.18,37.15,34.35-6.87,11.49-23.59,16.01-34.53,7.47-1.26-.98-2.23-2.84-3.81-3.19v5.8c0,.28-.67.54-1,.6-1.42.26-6.85.19-8.41,0-.54-.06-2.19-.52-2.19-1.01V19.69s.56-.6.6-.6c2.01,0,9.14-.4,10.41,0ZM599.9,48.01c-21.93,2.57-14.69,38.56,7.18,30.79,16.5-5.86,11.22-32.94-7.18-30.79Z"/>
    <path class="cls-1" d="M250.41,67.51c-1.36.42.22,4.05.65,4.95,3.75,7.81,15.09,10.46,21.93,5.22,1.61-1.24,3.34-4.36,5.1-4.45.73-.04,7.7,3.19,8.15,3.68,1.41,1.54-2.44,5.58-3.65,6.77-16.13,15.8-45.17,4.17-45.14-19.13.04-35.19,49.45-37.47,51.58-2.44.05.87.28,5.4-.6,5.4h-38.02ZM260.92,47.21c-4.4.64-11.88,6.39-10.33,11.33,3.03-.11,25.12.86,25.86-.2,1.53-2.2-3.28-7.74-5.05-9.01-3.09-2.2-6.76-2.66-10.48-2.12Z"/>
    <path class="cls-1" d="M645.83,67.51c-.53.16-.59.78-.53,1.3.14,1.19,1.82,4.84,2.56,5.88,4.18,5.88,14.29,7.58,20.16,3.4,1.5-1.06,4.04-4.92,5.42-4.93.97-.01,6.61,2.79,7.69,3.48.5.32,1.34.67,1.27,1.41-.05.54-3.31,4.64-3.94,5.28-12.1,12.48-36.33,8.5-43.03-7.82-7.94-19.36,5.25-40.35,26.8-38.41,10.95.98,22.22,12.24,22.22,23.41v6.4s-.56.6-.6.6h-38.02ZM645.63,58.71h26.21c2.11,0-1.71-6.4-2.4-7.21-7.32-8.59-22.98-4.16-23.82,7.21Z"/>
    <path class="cls-1" d="M453.83,89.03c-.75.75-9.09.73-10.22.2-1.77-.83-.38-3.75-1.09-5.31-9.4,11.07-32.53,8.47-32.23-8.58.29-16.96,19.15-15.13,30.54-17.52,2.77-.58,1.29-5.74.06-7.49-2.94-4.19-11.35-4.41-14.79-.84-1.31,1.36-1.96,4.4-3.68,4.75-.83.17-8.78-1.68-9.31-2.13-1.53-1.28,1.82-6.38,2.81-7.6,9.68-11.92,36.46-9.69,38.01,7.6.88,9.79,1.09,24.61.42,34.43-.05.72.01,1.97-.51,2.49ZM442.32,66.71c-4.82.43-15.02.47-18.41,4.21-2.95,3.25-1.72,7.72,2.25,9.35,8.77,3.59,17.83-4.42,16.16-13.56Z"/>
    <path class="cls-1" d="M307.44,44.7c3.79-4.15,7.95-7.19,13.79-7.62,11.14-.81,20.31,5.64,21.42,17.03.85,8.77,1.29,24.57.43,33.23-.11,1.13-.08,1.91-1.44,2.17-1.44.27-7.65.23-9.21.03-.68-.09-1.21-.15-1.58-.82l-.24-30.58c-1.28-12.58-18.17-13.45-22.16-1.83-.24.71-1.01,3.66-1.01,4.19v28.62c-2.24.29-9.48,1-11.2.19-.19-.09-.81-.73-.81-.79v-49.63s.56-.6.6-.6h10.81s.6.56.6.6v5.8Z"/>
    <path class="cls-1" d="M511.15,89.12c-.3.47-8.96.58-10.22.42-.68-.09-1.21-.15-1.58-.82-.93-9.46.56-19.66-.18-29.03-.47-5.98-3.38-10.9-9.8-11.41-8.56-.67-12.89,5.04-13.44,13-.62,8.93.66,18.45-.18,27.43-.27.49-.68.69-1.21.79-1.09.2-9.08.14-9.79-.19-.19-.09-.81-.73-.81-.79v-49.63s.56-.6.6-.6h10.81c1.03,0,.46,5.02.6,6,8.06-9.5,23.96-10.03,31.54.27,1.62,2.2,3.67,7.28,3.67,9.94v34.62Z"/>
    <path class="cls-1" d="M520.56,38.3h10.81s.6.56.6.6v28.02c0,1.98.97,5.86,1.93,7.68,3.22,6.15,13.14,6.46,17.06.9,4.63-6.56,1.03-26.71,2.21-35.41.07-.53.51-1.78,1.02-1.78h10.41c1.7,0,.6,6.39.58,7.39-.17,9.68,1.67,25.28-2.32,33.7-8.35,17.65-40.37,14.28-42.44-6.52-.18-1.84.05-3.71-.05-5.55-.45-7.81-1.31-20.06-.42-27.64.07-.58.05-1.03.62-1.38Z"/>
    <path class="cls-1" d="M203.39,89.12c-.35.55-9.98.64-11.11.11-.36-.17-.69-.36-.83-.77l-.27-39.36c-.11-.18-1.09-.8-1.2-.8h-7v-9.41s.56-.6.6-.6h7.4c1.3-2.81-.52-12.56.6-14.41.11-.18,1.09-.8,1.2-.8h10.01s.6.56.6.6v13.61c0,2.16,6.63-.21,8.2,1.41.86.89.84,7.18.43,8.42-1,2.98-8.63-.19-8.63,3.78v38.22Z"/>
    <path class="cls-1" d="M230.6,89.12c-1.47.44-12.01,1.01-12.01-.6v-49.63s.56-.6.6-.6h10.81s.6.56.6.6v50.23Z"/>
    <path class="cls-1" d="M230.06,28.55c-6.42,6.58-16.91-2.27-11.46-9.66,6.2-8.41,18.69,2.23,11.46,9.66Z"/>
  </g>
</svg>