<svg width="106" height="80" viewBox="0 0 106 80" fill="none" xmlns="http://www.w3.org/2000/svg">
<path d="M77.7441 28.8866C76.0845 28.8866 74.5273 29.3174 73.1747 30.0722L73.9305 29.4204C73.9305 29.4204 74.0354 28.8866 73.4405 28.8866C72.8465 28.8866 67.6478 28.8866 67.6478 28.8866L62.4316 33.3837V19.24C62.4316 19.24 62.1721 18.5471 61.5367 19.0481C60.9011 19.549 57.0478 22.8459 57.0478 22.8459V28.887H55.4028L50.1891 33.3832V19.24C50.1891 19.24 49.9291 18.5471 49.2945 19.0481C48.6595 19.549 44.8048 22.9305 44.8048 22.9305V31.4702C43.1254 29.8861 40.8621 28.9145 38.3727 28.9145C33.1924 28.9145 28.9932 33.1152 28.9932 38.2991C28.9932 43.4813 33.1924 47.6825 38.3727 47.6825C40.8621 47.6825 43.1254 46.7116 44.8048 45.1274V47.6825H50.1891V42.0282L55.4028 47.6825H57.0478H62.3056H62.4316V42.0278L67.6478 47.6825C67.6478 47.6825 72.8706 47.6825 73.7096 47.6825C74.5495 47.6825 74.0382 47.1318 74.0382 47.1318L73.7005 46.7696C74.9256 47.3547 76.2962 47.6825 77.7441 47.6825C82.9307 47.6825 87.1373 43.4751 87.1373 38.284C87.1367 33.0945 82.9307 28.8866 77.7441 28.8866ZM34.4224 38.2991C34.4224 36.1158 36.1911 34.3474 38.3723 34.3474C40.5523 34.3474 42.3207 36.1162 42.3207 38.2991C42.3207 40.4813 40.5519 42.2492 38.3723 42.2492C36.1911 42.2492 34.4224 40.4813 34.4224 38.2991ZM52.9858 36.9228C53.3599 36.6002 57.0478 33.4199 57.0478 33.4199V42.0259C57.0478 42.0259 53.3561 38.0538 52.9825 37.6511C52.6079 37.2482 52.6118 37.2454 52.9858 36.9228ZM65.2294 36.9228C65.5996 36.6032 70.3049 32.5461 70.3049 32.5461C69.0798 34.1337 68.351 36.1235 68.351 38.2846C68.351 39.4915 68.5785 40.6447 68.9919 41.7042C68.9919 41.7042 65.5749 38.0272 65.2126 37.6379C64.851 37.2488 64.8587 37.242 65.2294 36.9228ZM77.7441 42.2411C75.5591 42.2411 73.7889 40.4708 73.7889 38.284C73.7889 36.0988 75.5587 34.3276 77.7441 34.3276C79.9276 34.3276 81.6983 36.0994 81.6983 38.284C81.6979 40.4708 79.9271 42.2411 77.7441 42.2411Z" fill="#DF1E02"/>
<path d="M33.75 51.1543V61.5589H34.5948V60.1308H34.6239C34.8375 60.6554 35.1821 61.0586 35.6579 61.3403C36.1434 61.6221 36.6921 61.763 37.3037 61.763C37.8765 61.763 38.3717 61.6609 38.7892 61.4569C39.2165 61.2431 39.5708 60.9566 39.8524 60.5971C40.1339 60.2279 40.3427 59.8054 40.4787 59.3293C40.6146 58.8437 40.6825 58.3336 40.6825 57.7993C40.6825 57.2649 40.6146 56.7597 40.4787 56.2838C40.3427 55.798 40.1339 55.3755 39.8524 55.016C39.5708 54.6468 39.2165 54.3554 38.7892 54.1416C38.3717 53.9279 37.8765 53.821 37.3037 53.821C37.0318 53.821 36.76 53.855 36.4881 53.923C36.2163 53.991 35.9638 54.0979 35.7307 54.2437C35.4978 54.3797 35.2891 54.5497 35.1045 54.7536C34.9298 54.9577 34.7939 55.1957 34.6967 55.4677H34.6676V51.1543H33.75ZM39.765 57.7993C39.765 58.1878 39.7165 58.5764 39.6194 58.965C39.532 59.3439 39.3864 59.6839 39.1825 59.9851C38.9883 60.2862 38.7358 60.534 38.4252 60.7283C38.1145 60.9128 37.7406 61.0051 37.3037 61.0051C36.8182 61.0051 36.4056 60.9128 36.0657 60.7283C35.7356 60.534 35.4637 60.2862 35.2502 59.9851C35.0462 59.6839 34.8958 59.3439 34.7986 58.965C34.7114 58.5764 34.6676 58.1878 34.6676 57.7993C34.6676 57.4107 34.7114 57.027 34.7986 56.648C34.8958 56.2594 35.0462 55.9146 35.2502 55.6134C35.4637 55.3123 35.7356 55.0694 36.0657 54.8847C36.4056 54.6904 36.8182 54.5933 37.3037 54.5933C37.7406 54.5933 38.1145 54.6904 38.4252 54.8847C38.7358 55.0694 38.9883 55.3123 39.1825 55.6134C39.3864 55.9146 39.532 56.2594 39.6194 56.648C39.7165 57.027 39.765 57.4107 39.765 57.7993Z" fill="#DF1E02"/>
<path d="M42.1133 54.0401V61.5594H43.0309V57.5521C43.0309 57.1537 43.0988 56.7894 43.2347 56.4591C43.3706 56.1191 43.5601 55.8276 43.8028 55.5848C44.0552 55.3419 44.3513 55.1574 44.6911 55.031C45.031 54.895 45.4096 54.8367 45.8271 54.8561V53.9381C45.1475 53.909 44.56 54.0595 44.0649 54.3898C43.5794 54.7201 43.2202 55.1913 42.9871 55.8033H42.958V54.0401H42.1133Z" fill="#DF1E02"/>
<path d="M49.6259 54.5936C50.0628 54.5936 50.4463 54.686 50.7765 54.8705C51.1066 55.055 51.3784 55.2979 51.5921 55.5991C51.8153 55.9003 51.9804 56.2451 52.0873 56.6338C52.2037 57.0126 52.262 57.4012 52.262 57.7996C52.262 58.1978 52.2037 58.5913 52.0873 58.9799C51.9804 59.3588 51.8153 59.6988 51.5921 60C51.3784 60.3012 51.1066 60.544 50.7765 60.7285C50.4463 60.9131 50.0628 61.0054 49.6259 61.0054C49.189 61.0054 48.8055 60.9131 48.4754 60.7285C48.1453 60.544 47.8685 60.3012 47.6452 60C47.4316 59.6988 47.2666 59.3588 47.15 58.9799C47.0432 58.5913 46.9898 58.1978 46.9898 57.7996C46.9898 57.4012 47.0432 57.0126 47.15 56.6338C47.2666 56.2451 47.4316 55.9003 47.6452 55.5991C47.8685 55.2979 48.1453 55.055 48.4754 54.8705C48.8055 54.686 49.189 54.5936 49.6259 54.5936ZM49.6259 53.8213C49.0531 53.8213 48.5433 53.9281 48.0967 54.1418C47.6597 54.3557 47.2908 54.6422 46.9898 55.0016C46.6889 55.3611 46.4607 55.7837 46.3054 56.2694C46.1499 56.7455 46.0723 57.2555 46.0723 57.7996C46.0723 58.3436 46.1499 58.8584 46.3054 59.3441C46.4607 59.8202 46.6889 60.238 46.9898 60.5974C47.2908 60.9569 47.6597 61.2434 48.0967 61.4572C48.5433 61.6611 49.0531 61.7633 49.6259 61.7633C50.1987 61.7633 50.7037 61.6611 51.1406 61.4572C51.5873 61.2434 51.961 60.9569 52.262 60.5974C52.563 60.238 52.7912 59.8202 52.9465 59.3441C53.1019 58.8584 53.1796 58.3436 53.1796 57.7996C53.1796 57.2555 53.1019 56.7455 52.9465 56.2694C52.7912 55.7837 52.563 55.3611 52.262 55.0016C51.961 54.6422 51.5873 54.3557 51.1406 54.1418C50.7037 53.9281 50.1987 53.8213 49.6259 53.8213Z" fill="#DF1E02"/>
<path d="M54.5439 51.1543V61.5589H55.4615V58.7028L56.9471 57.4641L59.9181 61.5589H61.0687L57.6461 56.8229L60.8502 54.0396H59.6268L55.4615 57.6827V51.1543H54.5439Z" fill="#DF1E02"/>
<path d="M67.2292 57.275H62.3648C62.4036 56.9349 62.4814 56.6046 62.5978 56.2841C62.7241 55.9538 62.8892 55.6671 63.093 55.4243C63.2969 55.1717 63.5445 54.9725 63.8357 54.8268C64.1271 54.6713 64.4621 54.5936 64.8407 54.5936C65.2096 54.5936 65.5397 54.6713 65.8311 54.8268C66.1223 54.9725 66.3699 55.1717 66.5739 55.4243C66.7777 55.6671 66.9331 55.9489 67.0399 56.2694C67.1564 56.59 67.2195 56.9252 67.2292 57.275ZM62.3648 58.0473H68.1468C68.1662 57.5227 68.1177 57.0077 68.0011 56.5026C67.8846 55.9877 67.6904 55.536 67.4185 55.1474C67.1564 54.749 66.8117 54.4285 66.3845 54.1856C65.9573 53.9428 65.4427 53.8213 64.8407 53.8213C64.2484 53.8213 63.7338 53.9379 63.2969 54.171C62.8696 54.3944 62.5202 54.6956 62.2483 55.0746C61.9765 55.4437 61.7725 55.8663 61.6366 56.3422C61.5104 56.8183 61.4473 57.3041 61.4473 57.7996C61.4473 58.3338 61.5104 58.8439 61.6366 59.3296C61.7725 59.8057 61.9765 60.2282 62.2483 60.5974C62.5202 60.9569 62.8696 61.2434 63.2969 61.4572C63.7338 61.6611 64.2484 61.7633 64.8407 61.7633C65.7922 61.7633 66.5253 61.53 67.0399 61.0637C67.5642 60.5974 67.9235 59.9368 68.1177 59.0819H67.2001C67.0544 59.6648 66.7923 60.1311 66.4137 60.4808C66.0349 60.8305 65.5106 61.0054 64.8407 61.0054C64.4038 61.0054 64.0299 60.9131 63.7193 60.7285C63.4086 60.544 63.1513 60.3108 62.9474 60.0292C62.7435 59.7474 62.5929 59.4316 62.4959 59.0819C62.4085 58.7224 62.3648 58.3776 62.3648 58.0473Z" fill="#DF1E02"/>
<path d="M69.3779 54.0401V61.5594H70.2954V57.5521C70.2954 57.1537 70.3634 56.7894 70.4993 56.4591C70.6353 56.1191 70.8246 55.8276 71.0673 55.5848C71.3197 55.3419 71.6159 55.1574 71.9557 55.031C72.2956 54.895 72.6742 54.8367 73.0918 54.8561V53.9381C72.412 53.909 71.8247 54.0595 71.3295 54.3898C70.8439 54.7201 70.4848 55.1913 70.2517 55.8033H70.2226V54.0401H69.3779Z" fill="#DF1E02"/>
<path d="M30.0107 31.414C30.0107 31.414 31.622 29.2782 34.2038 28.0148C34.4403 27.9378 34.596 27.5405 33.9161 27.5405C33.2361 27.5405 27.76 27.5405 27.76 27.5405C27.76 27.5405 27.76 20.127 27.76 19.4037C27.76 18.6805 27.3123 18.6485 26.4641 19.3917C25.8223 19.9148 22.4295 22.8363 22.4295 22.8363V27.5405H18.8369V31.414H22.4295V39.4036C22.4295 45.2185 25.7594 49.79 29.0672 51.5098C29.9386 50.7937 33.1094 48.0383 33.1094 48.0383L31.7105 47.0544C29.321 45.3561 27.76 42.5625 27.76 39.4036V31.414H30.0107Z" fill="#DF1E02"/>
</svg>
