<?xml version="1.0" encoding="UTF-8"?>
<svg id="Capa_2" data-name="Capa 2" xmlns="http://www.w3.org/2000/svg" viewBox="0 0 551.73 110.18">
  <defs>
    <style>
      .cls-1 {
        fill: #9b5c8f;
      }

      .cls-2 {
        fill: #fff;
      }
    </style>
  </defs>
  <g id="Calm-and-confident">
    <g>
      <path class="cls-1" d="M115.57,92.26c1.67,5.49,4.92,10.68,6.6,16.13.16.52.99,1.48.13,1.79l-32.71-17.89-73.62-.04c-9.08-1.72-14.27-8.63-15.04-17.62-1.26-14.84-1.24-42.12,0-56.98C1.74,8.05,7.08.55,17.23,0h155.05c7.47.59,13.41,6.75,14.97,13.85-1.58,20.23,2.3,44.2.06,63.99-.6,5.31-7.69,14.41-13.13,14.41h-58.6ZM48.97,49.35c.98.09.98.97,1.24,1.63,2.45,6.34,3.98,12.12,7.39,18.23,2.63,4.72,11.46,19.39,17.97,13.45,3.3-3.01,1.83-16.58,2.23-21.47.8-9.73,2.85-22.88,5.59-32.2,1.75-5.95,9.07-16.48-.45-19.06-8.71-2.37-12.33,14.65-13.8,20.83-1.81,7.66-2.96,15.85-3.52,23.7l-4.16-11.53c-2.64-7.01-1.81-27.44-14.07-17.91l-17.96,33.28c-1.35-6.13-2.79-12.27-3.96-18.45s-1.94-18.37-3.99-23.55c-2.36-5.96-12.2-4.31-12.51,3.24-.33,8.07,5.07,31.03,7.14,39.93,3.19,13.71,7.17,37.8,21.03,14.22,4.42-7.51,7.97-16.49,11.84-24.35ZM107.09,18.13c-23.26,3.36-30.55,54.55-3.37,57.48,31.44,3.39,37.89-62.46,3.37-57.48ZM155.13,18.13c-22.02,2.97-30.18,49.18-7.51,56.5,33.75,10.9,43.91-61.4,7.51-56.5Z"/>
      <polygon class="cls-2" points="284.66 72.4 291.15 20.61 308.7 21.14 314.44 48.71 320.55 20.55 339.09 20.53 346.14 72.4 332.05 72.4 328.84 37.82 319.82 72.34 310.24 72.12 300.99 37.17 297.47 72.4 284.66 72.4"/>
      <polygon class="cls-2" points="348.06 72.4 354.84 20.48 372.37 20.55 377.53 48.7 384.53 20.81 402.47 20.56 409.55 72.4 395.46 72.4 392.25 37.82 382.87 72.43 373.77 72.32 365.35 38.46 364.39 39.09 361.51 72.4 348.06 72.4"/>
      <path class="cls-2" d="M256.34,19.42c23.64-2.85,30.06,18.41,25.57,37.74-3.11,13.38-13.85,18.24-26.86,16.36-22.82-3.3-24.74-50.96,1.29-54.09ZM260.11,30.98c-9.39.15-8.78,21.4-6.24,27.05,2.84,6.3,10.83,5.24,13.05-1.12s2.92-26.08-6.81-25.93Z"/>
      <path class="cls-2" d="M466.23,20.52c2.84.3,7.6,1.88,10.12,3.33,10.04,5.74,9.92,20.09-.75,24.95l10.81,23.6h-15.37l-10.89-23.06v23.06h-14.09V20.52c6.46.5,13.84-.67,20.17,0ZM460.15,42.94c12.33.94,12.14-13.05,0-12.17v12.17Z"/>
      <polygon class="cls-2" points="441.57 20.52 441.57 32.05 427.48 32.05 428.09 41.37 439.65 41.02 439.65 51.91 427.48 51.91 427.48 61.51 442.21 61.51 442.21 72.08 441.25 73.04 414.35 73.04 413.39 72.08 413.39 20.52 441.57 20.52"/>
      <path class="cls-2" d="M551.73,20.52v11.53h-13.13c-.2,0-.49-.81-.96-.64v10.25l12.17-.64v10.89h-12.17v9.61h14.09v10.89h-28.18V20.52h28.18Z"/>
      <path class="cls-2" d="M519.71,32.69c-27.53-9.26-27.32,37.05,0,27.54v12.81c-21.62,4.78-37.76-9.42-35.16-31.63,1.91-16.29,20.18-26.53,35.16-20.56v11.85Z"/>
      <path class="cls-2" d="M234.7,32.69c-27.42-9.29-27.23,36.98,0,27.54v12.81c-20.7,4.65-36.79-8.39-35.25-29.81,1.26-17.47,19.1-28.42,35.25-22.39v11.85Z"/>
      <path class="cls-2" d="M48.97,49.35c-3.87,7.86-7.43,16.84-11.84,24.35-13.86,23.58-17.84-.51-21.03-14.22-2.07-8.9-7.47-31.86-7.14-39.93.31-7.55,10.15-9.19,12.51-3.24,2.05,5.17,2.82,17.31,3.99,23.55s2.61,12.32,3.96,18.45l17.96-33.28c12.25-9.53,11.42,10.9,14.07,17.91l4.16,11.53c.56-7.85,1.71-16.04,3.52-23.7,1.46-6.18,5.08-23.19,13.8-20.83,9.53,2.59,2.2,13.12.45,19.06-2.74,9.32-4.79,22.47-5.59,32.2-.4,4.89,1.07,18.46-2.23,21.47-6.5,5.93-15.34-8.74-17.97-13.45-3.4-6.11-4.94-11.89-7.39-18.23-.26-.67-.26-1.54-1.24-1.63Z"/>
      <path class="cls-2" d="M155.13,18.13c36.4-4.9,26.24,67.4-7.51,56.5-22.67-7.32-14.51-53.53,7.51-56.5ZM159.54,59.36c5.31-5.3,6.96-17.05,4.09-23.8-4.81-11.3-13.61.75-15.59,7.5-2.48,8.47,1.07,26.71,11.5,16.31Z"/>
      <path class="cls-2" d="M107.09,18.13c34.51-4.99,28.07,60.87-3.37,57.48-27.18-2.93-19.88-54.12,3.37-57.48ZM110.23,30.96c-4.96.3-10.03,9.88-10.61,14.28s-.22,16.2,5.45,16.9c7.43.92,11.83-10.58,12.35-16.39.39-4.33-1.31-15.14-7.19-14.79Z"/>
      <path class="cls-1" d="M159.54,59.36c-10.43,10.4-13.98-7.83-11.5-16.31,1.97-6.75,10.78-18.79,15.59-7.5,2.87,6.75,1.23,18.5-4.09,23.8Z"/>
      <path class="cls-1" d="M110.23,30.96c5.88-.35,7.57,10.46,7.19,14.79-.52,5.81-4.92,17.31-12.35,16.39-5.67-.7-6.02-12.6-5.45-16.9s5.65-13.98,10.61-14.28Z"/>
    </g>
  </g>
</svg>